PathFileType	4	(X/Y/Z)	Run_200 02
DataRate	CameraRate	NumFrames	NumMarkers	Units	OrigDataRate	OrigDataStartFrame	OrigNumFrames
100	100	4	45	mm	100	4	137
Frame#	Time	RASI			LPSI			RTH1			RTH2			RTH3			LTH1			LTH2			LTH3			RTB1			RTB2			RTB3			RLMAL			RMMAL			LTB1			LTB2			LTB3			RCAL			RTOE			RMT5			LCAL			LTOE			LMT5			LACR			RACR			CLAV			C7			LPSH			RUA1			RUA2			RUA3			RLEL			RMEL			LUA1			LUA2			LUA3			LLEL			LMEL			RFAsuperior			RFAradius			LFAsuperior			LFAradius			LFAulna			LASI			RFAulna			RPSI			
		X1	Y1	Z1	X2	Y2	Z2	X3	Y3	Z3	X4	Y4	Z4	X5	Y5	Z5	X6	Y6	Z6	X7	Y7	Z7	X8	Y8	Z8	X9	Y9	Z9	X10	Y10	Z10	X11	Y11	Z11	X12	Y12	Z12	X13	Y13	Z13	X14	Y14	Z14	X15	Y15	Z15	X16	Y16	Z16	X17	Y17	Z17	X18	Y18	Z18	X19	Y19	Z19	X20	Y20	Z20	X21	Y21	Z21	X22	Y22	Z22	X23	Y23	Z23	X24	Y24	Z24	X25	Y25	Z25	X26	Y26	Z26	X27	Y27	Z27	X28	Y28	Z28	X29	Y29	Z29	X30	Y30	Z30	X31	Y31	Z31	X32	Y32	Z32	X33	Y33	Z33	X34	Y34	Z34	X35	Y35	Z35	X36	Y36	Z36	X37	Y37	Z37	X38	Y38	Z38	X39	Y39	Z39	X40	Y40	Z40	X41	Y41	Z41	X42	Y42	Z42	X43	Y43	Z43	X44	Y44	Z44	X45	Y45	Z45	

1	0.2	1017.348438	1090.994353	-385.429829	848.001716	1120.580456	-543.236329	973.193182	828.880502	-322.743161	1063.455241	777.437938	-343.71313	1022.088976	666.29232	-348.214991	873.178227	869.710705	-666.345696	922.255625	748.143328	-655.122718	848.551707	661.644851	-648.215133	1117.392473	433.037027	-387.810285	1083.596729	372.809471	-343.602815	1117.852619	250.902337	-391.314556	1094.573316	129.345961	-374.46881	1108.581362	158.314413	-454.043357	788.06916	429.549664	-620.441108	656.70446	407.186103	-636.803928	649.346189	294.63051	-601.315187	1040.467102	92.46073800000001	-433.689872	1258.632671	133.54541	-425.164032	1204.949224	95.790009	-348.852637	492.623384	269.73509	-554.103888	587.262275	80.437246	-559.079482	538.702585	100.461505	-627.834657	993.874775	1597.324064	-644.411245	961.166926	1572.735853	-342.195161	1042.615171	1505.139115	-465.903221	947.805625	1610.025668	-495.481271	916.643872	1555.916292	-670.3073879999999	857.713883	1466.318918	-257.197888	775.03937	1442.308043	-298.016912	747.470909	1398.419035	-249.383914	726.648287	1335.214678	-216.427435	716.631258	1319.291789	-301.197967	942.380186	1463.464735	-727.32862	885.649992	1378.308816	-721.761384	923.679292	1332.620749	-767.4973639999999	943.336329	1254.360909	-777.945892	884.783961	1244.50668	-705.178509	756.428992	1260.012338	-215.930396	946.872986	1199.825327	-255.014591	1003.810747	1238.464426	-702.694824	1084.843643	1357.275976	-600.691136	1118.055173	1296.740734	-599.166139	1008.700302	1081.095108	-617.301079	910.731815	1148.246932	-230.776191	850.6312789999999	1117.573063	-454.496787	
2	0.21	1018.197169	1087.975663	-384.551705	848.441992	1116.267722	-542.423086	975.559582	825.637193	-323.741052	1066.879847	776.388118	-343.706329	1023.738006	663.551983	-350.192565	877.613961	863.679378	-664.639908	928.698453	743.218978	-652.6201129999999	857.048388	655.533033	-646.335383	1115.239067	428.258921	-391.439617	1080.721276	368.493297	-346.811637	1112.291725	246.058899	-394.840814	1086.947298	125.311771	-377.927493	1100.959705	153.60436	-457.731292	795.087774	425.664768	-619.571229	662.663505	409.019811	-636.122514	650.579799	296.380167	-601.759059	1031.561023	92.000107	-437.030267	1250.441478	124.46646	-432.445698	1195.494948	90.43060800000001	-354.689509	495.918082	279.963221	-555.772372	577.526199	80.42003099999999	-559.881336	529.75797	107.62509	-628.775182	994.590646	1594.252393	-643.006447	962.775559	1568.150755	-340.487031	1043.368407	1501.457494	-464.845622	948.2560989999999	1606.284014	-493.66715	917.013391	1553.445219	-668.796623	860.202547	1459.797652	-255.717705	777.258525	1435.971436	-296.179763	750.436115	1390.843288	-248.400007	730.123821	1327.208028	-216.301101	719.619659	1312.250879	-300.630767	941.394682	1461.742536	-726.5007900000001	883.739564	1377.248819	-721.109521	920.962973	1331.734243	-767.996134	939.7255740000001	1253.10686	-779.264419	881.310704	1243.227535	-706.373111	760.8079279999999	1252.436327	-216.259156	952.222686	1195.083261	-255.076614	1000.346876	1234.611154	-704.8231479999999	1084.425489	1349.97584	-600.91296	1116.292378	1288.741499	-601.025538	1009.049963	1077.729502	-616.150648	916.634761	1142.679292	-231.687134	851.253979	1113.63694	-453.44721	
3	0.22	1018.613323	1084.169458	-382.743519	848.917706	1110.895968	-541.584741	978.386581	821.523597	-326.111435	1070.300426	773.853279	-345.761927	1025.019645	659.556193	-352.628819	882.018377	856.9977249999999	-662.555191	935.421827	737.671662	-650.397436	866.015892	648.6741490000001	-644.364631	1112.337958	422.263351	-395.773521	1076.976238	363.2978	-350.359265	1104.534621	240.018246	-398.227608	1076.048626	120.679888	-380.42682	1089.738663	147.629165	-460.773134	803.202125	421.093721	-618.879079	669.912491	410.27291	-635.528156	653.084477	297.810258	-602.366087	1018.997664	92.038366	-439.367629	1239.007071	111.511681	-439.765059	1182.968209	80.823403	-360.692367	500.34205	288.887351	-557.081533	568.8829469999999	79.764984	-561.195501	523.42153	114.939571	-629.880309	995.272687	1590.097683	-641.700524	964.416744	1562.619907	-338.813162	1044.012338	1496.762585	-463.956467	948.637214	1601.650365	-492.01468	917.3599830000001	1549.953012	-667.3772719999999	863.0997190000001	1451.981033	-254.033606	779.761385	1428.131578	-293.730124	754.002019	1381.721835	-246.789231	734.419685	1317.723941	-215.438845	722.827774	1303.577916	-299.448728	940.37487	1459.103816	-725.952937	881.595384	1375.509205	-720.700993	917.865823	1330.012752	-768.586867	935.48708	1251.059924	-780.872091	877.605215	1241.17573	-707.85572	766.106976	1243.416836	-216.112862	958.456759	1189.188808	-255.071116	996.370187	1229.656792	-707.455413	1084.135677	1340.943004	-601.973509	1114.521425	1278.955431	-603.868373	1009.23879	1073.457887	-614.774054	923.453442	1135.880376	-232.641558	851.497254	1108.865706	-452.126131	
4	0.23	1018.676816	1079.441984	-380.636209	849.141748	1104.690544	-540.561279	980.944196	816.654161	-328.041596	1072.484598	769.266975	-349.991783	1026.102493	654.311788	-355.278143	886.3911450000001	849.718855	-660.397031	942.441956	731.553912	-648.638811	875.32338	641.127692	-642.447274	1109.295471	415.584228	-400.207018	1072.873203	357.609602	-353.911108	1095.516924	233.422425	-401.519353	1062.764622	116.327737	-382.363421	1075.99715	141.475758	-463.329984	811.980453	416.020512	-618.369625	678.074856	411.014477	-635.117287	656.575824	299.312948	-603.16595	1003.801164	92.165083	-441.201623	1225.327689	97.15172699999999	-444.504353	1168.183895	69.544617	-364.67529	504.770225	296.526373	-557.976737	562.404477	80.54701799999999	-562.931058	519.9576939999999	122.198644	-631.148597	995.83646	1584.873219	-640.5170460000001	966.045035	1556.152745	-337.204541	1044.551327	1491.095858	-463.225311	948.849271	1596.098551	-490.620223	917.5994439999999	1545.358519	-665.989186	866.362802	1442.99672	-252.235701	782.561227	1418.859725	-290.746506	758.172467	1371.102076	-244.699721	739.503591	1306.86024	-213.948884	726.588494	1293.234546	-297.878586	939.190959	1455.511366	-725.5859400000001	879.272843	1372.984678	-720.571713	914.448998	1327.424697	-769.315163	930.6893209999999	1248.205513	-782.784464	873.651058	1238.338037	-709.5387030000001	772.2764529999999	1233.048221	-215.507477	965.503162	1182.18386	-255.088102	991.8876320000001	1223.630597	-710.582195	1083.898334	1330.270244	-603.886816	1112.649301	1267.49211	-607.6650519999999	1009.324068	1068.269893	-613.264121	931.107412	1127.973121	-233.594846	851.346266	1103.28455	-450.767696	
